<svg width="264" height="38" viewBox="0 0 264 38" xmlns="http://www.w3.org/2000/svg">
  <path d="m2.0312 8.25h8.4844c1.7396 0 3.2344 0.26042 4.4844 0.78125 1.2604 0.52083 2.2292 1.2916 2.9062 2.3126 0.6771 1.0208 1.0157 2.276 1.0157 3.7656 0 1.2187-0.2084 2.2656-0.625 3.1406-0.4063 0.8646-0.9844 1.5885-1.7344 2.1719-0.7396 0.5729-1.6094 1.0312-2.6094 1.375l-1.4843 0.7812h-7.375l-0.03125-3.6562h5.4844c0.8229 0 1.5052-0.1459 2.0469-0.4375 0.5416-0.2917 0.9479-0.6979 1.2187-1.2188 0.2813-0.5208 0.4219-1.125 0.4219-1.8125 0-0.7291-0.1354-1.3593-0.4063-1.8906-0.2708-0.5313-0.6823-0.9375-1.2343-1.2187-0.5521-0.2813-1.2448-0.4219-2.0782-0.4219h-3.7968v19.078h-4.6875v-22.75zm12.719 22.75-5.1875-10.141 4.9531-0.0313 5.25 9.9531v0.2188h-5.0156zm15.281 0.3125c-1.3124 0-2.4895-0.2083-3.5312-0.625-1.0417-0.4271-1.9271-1.0156-2.6562-1.7656-0.7188-0.75-1.2709-1.6198-1.6563-2.6094-0.3854-1-0.5781-2.0625-0.5781-3.1875v-0.625c0-1.2812 0.1823-2.4531 0.5468-3.5156 0.3646-1.0625 0.8855-1.9844 1.5626-2.7656 0.6874-0.7813 1.5208-1.3803 2.5-1.7969 0.9791-0.4271 2.0833-0.6407 3.3124-0.6407 1.198 0 2.2605 0.198 3.1876 0.5938 0.927 0.3958 1.7031 0.9583 2.3281 1.6875 0.6354 0.7292 1.1146 1.6042 1.4375 2.625 0.3229 1.0104 0.4844 2.1354 0.4844 3.375v1.875h-13.438v-3h9.0157v-0.3437c0-0.625-0.1146-1.1823-0.3438-1.6719-0.2187-0.5-0.5521-0.8959-1-1.1875-0.4479-0.2917-1.0208-0.4375-1.7187-0.4375-0.5938 0-1.1042 0.1302-1.5313 0.3906s-0.776 0.625-1.0469 1.0937c-0.2604 0.4688-0.4583 1.0209-0.5937 1.6563-0.125 0.625-0.1875 1.3125-0.1875 2.0625v0.625c0 0.6771 0.0938 1.3021 0.2812 1.875 0.198 0.5729 0.474 1.0677 0.8282 1.4844 0.3646 0.4166 0.8021 0.7396 1.3125 0.9687 0.5208 0.2292 1.1093 0.3438 1.7656 0.3438 0.8125 0 1.5677-0.1563 2.2656-0.4688 0.7084-0.3229 1.3177-0.8073 1.8281-1.4531l2.1876 2.375c-0.3542 0.5104-0.8386 1-1.4532 1.4688-0.6041 0.4687-1.3333 0.8541-2.1875 1.1562-0.8541 0.2917-1.8281 0.4375-2.9219 0.4375zm15.234-0.3125h-4.5312v-18.406c0-1.2813 0.25-2.3594 0.75-3.2344 0.5104-0.88542 1.2239-1.5521 2.1406-2 0.9271-0.45834 2.026-0.6875 3.2969-0.6875 0.4166 0 0.8177 0.03124 1.2031 0.09374 0.3854 0.05209 0.7604 0.1198 1.125 0.20313l-0.0469 3.3906c-0.1979-0.0521-0.4062-0.0886-0.625-0.1094-0.2187-0.0208-0.4739-0.0312-0.7656-0.0312-0.5417 0-1.0052 0.0937-1.3906 0.2812-0.375 0.1771-0.6615 0.4427-0.8594 0.7969-0.1979 0.3541-0.2969 0.7864-0.2969 1.2969v18.406zm3.375-16.906v3.1874h-10.422v-3.1874h10.422zm1.6406 8.625v-0.3282c0-1.2396 0.1771-2.3802 0.5313-3.4218 0.3542-1.0521 0.8698-1.9636 1.5469-2.7344 0.6771-0.7709 1.5104-1.3698 2.5-1.7969 0.9896-0.4375 2.125-0.6563 3.4062-0.6563 1.2813 0 2.4219 0.2188 3.4219 0.6563 1 0.4271 1.8385 1.026 2.5156 1.7969 0.6875 0.7708 1.2084 1.6823 1.5625 2.7344 0.3542 1.0416 0.5313 2.1822 0.5313 3.4218v0.3282c0 1.2291-0.1771 2.3697-0.5313 3.4218-0.3541 1.0417-0.875 1.9532-1.5625 2.7344-0.6771 0.7708-1.5104 1.3698-2.5 1.7969s-2.125 0.6406-3.4062 0.6406c-1.2813 0-2.4219-0.2135-3.4219-0.6406-0.9896-0.4271-1.8281-1.0261-2.5156-1.7969-0.6771-0.7812-1.1927-1.6927-1.5469-2.7344-0.3542-1.0521-0.5313-2.1927-0.5313-3.4218zm4.5-0.3282v0.3282c0 0.7083 0.0626 1.3697 0.1876 1.9843s0.3229 1.1563 0.5937 1.625c0.2813 0.4584 0.6458 0.8177 1.0937 1.0781 0.448 0.2605 0.9948 0.3907 1.6407 0.3907 0.625 0 1.1614-0.1302 1.6093-0.3907 0.448-0.2604 0.8073-0.6197 1.0782-1.0781 0.2708-0.4687 0.4687-1.0104 0.5937-1.625 0.1354-0.6146 0.2031-1.276 0.2031-1.9843v-0.3282c0-0.6875-0.0677-1.3333-0.2031-1.9375-0.125-0.6146-0.3281-1.1562-0.6093-1.625-0.2709-0.4791-0.6303-0.8541-1.0782-1.125-0.4479-0.2708-0.9896-0.4062-1.625-0.4062s-1.1771 0.1354-1.625 0.4062c-0.4375 0.2709-0.7968 0.6459-1.0781 1.125-0.2708 0.4688-0.4687 1.0104-0.5937 1.625-0.125 0.6042-0.1876 1.25-0.1876 1.9375zm18.781-4.6094v13.219h-4.5v-16.906h4.2344l0.2656 3.6874zm5.0937-3.7968-0.0781 4.1718c-0.2187-0.0312-0.4843-0.0572-0.7969-0.0781-0.302-0.0312-0.5781-0.0469-0.8281-0.0469-0.6354 0-1.1875 0.0834-1.6562 0.25-0.4584 0.1563-0.8438 0.3907-1.1563 0.7032-0.3021 0.3125-0.5312 0.6927-0.6875 1.1406-0.1458 0.4479-0.2291 0.9583-0.25 1.5312l-0.9062-0.2812c0-1.0938 0.1093-2.099 0.3281-3.0156 0.2188-0.9271 0.5365-1.7344 0.9531-2.4219 0.4271-0.6875 0.9479-1.2187 1.5625-1.5937s1.3177-0.5626 2.1094-0.5626c0.25 0 0.5052 0.0209 0.7656 0.0626 0.2604 0.0312 0.474 0.0781 0.6406 0.1406zm6.625 3.6094v13.406h-4.5156v-16.906h4.2344l0.2812 3.5zm-0.625 4.3593h-1.25c0-1.1771 0.1407-2.2604 0.4219-3.25 0.2917-1 0.7136-1.8646 1.2657-2.5937 0.5624-0.7396 1.2552-1.3125 2.0781-1.7188 0.8229-0.4062 1.776-0.6094 2.8593-0.6094 0.75 0 1.4376 0.1146 2.0626 0.3438 0.625 0.2188 1.1614 0.5677 1.6093 1.0469 0.4584 0.4687 0.8125 1.0833 1.0625 1.8437 0.25 0.75 0.375 1.6511 0.375 2.7032v11.281h-4.5v-10.781c0-0.7709-0.1041-1.3646-0.3125-1.7813-0.2083-0.4167-0.5052-0.7083-0.8906-0.875-0.375-0.1667-0.8281-0.25-1.3594-0.25-0.5833 0-1.0937 0.1198-1.5312 0.3594-0.4271 0.2396-0.7813 0.5729-1.0625 1-0.2813 0.4166-0.4896 0.9062-0.625 1.4687s-0.2032 1.1667-0.2032 1.8125zm10.063-0.5156-1.6094 0.2031c0-1.1041 0.1354-2.1302 0.4062-3.0781 0.2813-0.9479 0.6927-1.7813 1.2344-2.5 0.5521-0.7187 1.2344-1.276 2.0469-1.6719 0.8125-0.4062 1.75-0.6094 2.8125-0.6094 0.8126 0 1.5516 0.1198 2.2186 0.3594 0.667 0.2292 1.234 0.599 1.703 1.1094 0.479 0.5 0.844 1.1562 1.094 1.9688 0.26 0.8124 0.391 1.8072 0.391 2.9843v10.797h-4.516v-10.797c0-0.7812-0.104-1.375-0.312-1.7812-0.1984-0.4167-0.4901-0.7031-0.8755-0.8594-0.375-0.1667-0.8229-0.25-1.3437-0.25-0.5417 0-1.0157 0.1094-1.4219 0.3281-0.4063 0.2084-0.7448 0.5-1.0157 0.875-0.2708 0.375-0.4739 0.8125-0.6093 1.3125-0.1354 0.4896-0.2031 1.0261-0.2031 1.6094zm21.562 9.875c-1.312 0-2.489-0.2083-3.531-0.625-1.042-0.4271-1.927-1.0156-2.656-1.7656-0.719-0.75-1.271-1.6198-1.656-2.6094-0.386-1-0.579-2.0625-0.579-3.1875v-0.625c0-1.2812 0.183-2.4531 0.547-3.5156 0.365-1.0625 0.886-1.9844 1.563-2.7656 0.687-0.7813 1.521-1.3803 2.5-1.7969 0.979-0.4271 2.083-0.6407 3.312-0.6407 1.198 0 2.261 0.198 3.188 0.5938s1.703 0.9583 2.328 1.6875c0.635 0.7292 1.114 1.6042 1.437 2.625 0.323 1.0104 0.485 2.1354 0.485 3.375v1.875h-13.438v-3h9.016v-0.3437c0-0.625-0.115-1.1823-0.344-1.6719-0.219-0.5-0.552-0.8959-1-1.1875-0.448-0.2917-1.021-0.4375-1.719-0.4375-0.593 0-1.104 0.1302-1.531 0.3906s-0.776 0.625-1.047 1.0937c-0.26 0.4688-0.458 1.0209-0.594 1.6563-0.124 0.625-0.187 1.3125-0.187 2.0625v0.625c0 0.6771 0.094 1.3021 0.281 1.875 0.198 0.5729 0.474 1.0677 0.828 1.4844 0.365 0.4166 0.802 0.7396 1.313 0.9687 0.521 0.2292 1.109 0.3438 1.765 0.3438 0.813 0 1.568-0.1563 2.266-0.4688 0.708-0.3229 1.318-0.8073 1.828-1.4531l2.188 2.375c-0.354 0.5104-0.839 1-1.453 1.4688-0.605 0.4687-1.334 0.8541-2.188 1.1562-0.854 0.2917-1.828 0.4375-2.922 0.4375zm19.485-4v-20.312h4.531v24h-4.078l-0.453-3.6875zm-10.688-4.5625v-0.3281c0-1.2917 0.146-2.4636 0.438-3.5157 0.291-1.0624 0.718-1.9739 1.281-2.7343 0.562-0.7604 1.255-1.349 2.078-1.7657 0.823-0.4166 1.76-0.625 2.813-0.625 0.989 0 1.854 0.2084 2.593 0.625 0.75 0.4167 1.386 1.0105 1.907 1.7813 0.531 0.7604 0.958 1.6615 1.281 2.7031 0.323 1.0313 0.557 2.1615 0.703 3.3906v0.7188c-0.146 1.1771-0.38 2.2708-0.703 3.2812-0.323 1.0105-0.75 1.8959-1.281 2.6563-0.521 0.75-1.157 1.3333-1.907 1.75s-1.625 0.625-2.625 0.625c-1.052 0-1.989-0.2135-2.812-0.6406-0.813-0.4271-1.5-1.0261-2.063-1.7969-0.552-0.7708-0.974-1.6771-1.265-2.7188-0.292-1.0416-0.438-2.177-0.438-3.4062zm4.5-0.3281v0.3281c0 0.6979 0.052 1.349 0.156 1.9531 0.115 0.6042 0.297 1.1407 0.547 1.6094 0.261 0.4583 0.594 0.8177 1 1.0781 0.417 0.25 0.922 0.375 1.516 0.375 0.771 0 1.406-0.1718 1.906-0.5156 0.5-0.3542 0.88-0.8385 1.141-1.4531 0.271-0.6146 0.427-1.3229 0.468-2.125v-2.0469c-0.031-0.6562-0.124-1.2448-0.281-1.7656-0.146-0.5313-0.364-0.9844-0.656-1.3594-0.281-0.375-0.635-0.6667-1.063-0.875-0.416-0.2083-0.911-0.3125-1.484-0.3125-0.583 0-1.083 0.1354-1.5 0.4063-0.417 0.2604-0.755 0.6197-1.016 1.0781-0.25 0.4583-0.437 1-0.562 1.625-0.115 0.6146-0.172 1.2812-0.172 2z" fill="#daa520"/>
  <path d="m162.61 8.25v22.75h-4.687l-9.141-15.25v15.25h-4.687v-22.75h4.687l9.157 15.266v-15.266h4.671zm11.579 23.062c-1.313 0-2.49-0.2083-3.532-0.625-1.041-0.4271-1.927-1.0156-2.656-1.7656-0.719-0.75-1.271-1.6198-1.656-2.6094-0.386-1-0.578-2.0625-0.578-3.1875v-0.625c0-1.2812 0.182-2.4531 0.546-3.5156 0.365-1.0625 0.886-1.9844 1.563-2.7656 0.687-0.7813 1.521-1.3803 2.5-1.7969 0.979-0.4271 2.083-0.6407 3.313-0.6407 1.197 0 2.26 0.198 3.187 0.5938s1.703 0.9583 2.328 1.6875c0.636 0.7292 1.115 1.6042 1.438 2.625 0.323 1.0104 0.484 2.1354 0.484 3.375v1.875h-13.437v-3h9.015v-0.3437c0-0.625-0.114-1.1823-0.344-1.6719-0.218-0.5-0.552-0.8959-1-1.1875-0.448-0.2917-1.02-0.4375-1.718-0.4375-0.594 0-1.105 0.1302-1.532 0.3906s-0.776 0.625-1.047 1.0937c-0.26 0.4688-0.458 1.0209-0.593 1.6563-0.125 0.625-0.188 1.3125-0.188 2.0625v0.625c0 0.6771 0.094 1.3021 0.281 1.875 0.198 0.5729 0.474 1.0677 0.829 1.4844 0.364 0.4166 0.802 0.7396 1.312 0.9687 0.521 0.2292 1.109 0.3438 1.766 0.3438 0.812 0 1.567-0.1563 2.265-0.4688 0.709-0.3229 1.318-0.8073 1.828-1.4531l2.188 2.375c-0.354 0.5104-0.839 1-1.453 1.4688-0.604 0.4687-1.333 0.8541-2.188 1.1562-0.854 0.2917-1.828 0.4375-2.921 0.4375zm17.781-17.219v3.1874h-9.844v-3.1874h9.844zm-7.407-4.1719h4.5v15.984c0 0.4896 0.063 0.8646 0.188 1.125 0.135 0.2605 0.333 0.4428 0.594 0.5469 0.26 0.0938 0.588 0.1407 0.984 0.1407 0.281 0 0.531-0.0105 0.75-0.0313 0.229-0.0313 0.422-0.0625 0.578-0.0937l0.016 3.3124c-0.386 0.125-0.802 0.224-1.25 0.2969s-0.943 0.1094-1.484 0.1094c-0.99 0-1.855-0.1615-2.594-0.4844-0.729-0.3333-1.292-0.8646-1.688-1.5937-0.396-0.7292-0.594-1.6875-0.594-2.875v-16.438zm14.797 16.703 3.516-12.531h2.859l-0.922 4.9218-3.515 11.984h-2.391l0.453-4.375zm-1.781-12.531 2.516 12.516 0.234 4.3906h-2.812l-4.282-16.906h4.344zm11.375 12.312 2.453-12.312h4.36l-4.282 16.906h-2.796l0.265-4.5938zm-2.828-12.312 3.5 12.437 0.484 4.4688h-2.406l-3.515-11.969-0.891-4.9374h2.828zm11.187 8.625v-0.3282c0-1.2396 0.178-2.3802 0.532-3.4218 0.354-1.0521 0.87-1.9636 1.547-2.7344 0.677-0.7709 1.51-1.3698 2.5-1.7969 0.989-0.4375 2.125-0.6563 3.406-0.6563s2.422 0.2188 3.422 0.6563c1 0.4271 1.838 1.026 2.515 1.7969 0.688 0.7708 1.209 1.6823 1.563 2.7344 0.354 1.0416 0.531 2.1822 0.531 3.4218v0.3282c0 1.2291-0.177 2.3697-0.531 3.4218-0.354 1.0417-0.875 1.9532-1.563 2.7344-0.677 0.7708-1.51 1.3698-2.5 1.7969-0.989 0.4271-2.125 0.6406-3.406 0.6406s-2.422-0.2135-3.422-0.6406c-0.989-0.4271-1.828-1.0261-2.515-1.7969-0.677-0.7812-1.193-1.6927-1.547-2.7344-0.354-1.0521-0.532-2.1927-0.532-3.4218zm4.5-0.3282v0.3282c0 0.7083 0.063 1.3697 0.188 1.9843s0.323 1.1563 0.594 1.625c0.281 0.4584 0.646 0.8177 1.094 1.0781 0.447 0.2605 0.994 0.3907 1.64 0.3907 0.625 0 1.162-0.1302 1.61-0.3907 0.447-0.2604 0.807-0.6197 1.078-1.0781 0.27-0.4687 0.468-1.0104 0.593-1.625 0.136-0.6146 0.203-1.276 0.203-1.9843v-0.3282c0-0.6875-0.067-1.3333-0.203-1.9375-0.125-0.6146-0.328-1.1562-0.609-1.625-0.271-0.4791-0.63-0.8541-1.078-1.125-0.448-0.2708-0.99-0.4062-1.625-0.4062-0.636 0-1.177 0.1354-1.625 0.4062-0.438 0.2709-0.797 0.6459-1.078 1.125-0.271 0.4688-0.469 1.0104-0.594 1.625-0.125 0.6042-0.188 1.25-0.188 1.9375zm18.782-4.6094v13.219h-4.5v-16.906h4.234l0.266 3.6874zm5.094-3.7968-0.079 4.1718c-0.218-0.0312-0.484-0.0572-0.797-0.0781-0.302-0.0312-0.578-0.0469-0.828-0.0469-0.635 0-1.187 0.0834-1.656 0.25-0.458 0.1563-0.844 0.3907-1.156 0.7032-0.302 0.3125-0.531 0.6927-0.688 1.1406-0.145 0.4479-0.229 0.9583-0.25 1.5312l-0.906-0.2812c0-1.0938 0.11-2.099 0.328-3.0156 0.219-0.9271 0.537-1.7344 0.953-2.4219 0.427-0.6875 0.948-1.2187 1.563-1.5937 0.614-0.375 1.318-0.5626 2.109-0.5626 0.25 0 0.505 0.0209 0.766 0.0626 0.26 0.0312 0.474 0.0781 0.641 0.1406zm6.624-7v24.016h-4.5v-24.016h4.5zm10.657 7.1094-7.344 8.375-3.937 3.9843-1.641-3.25 3.125-3.9687 4.39-5.1406h5.407zm-4.672 16.906-5-7.8125 3.109-2.7187 7.078 10.531h-5.187z" fill="#808080"/>
</svg>